<svg width="116" height="124" viewBox="0 0 116 124" fill="none" xmlns="http://www.w3.org/2000/svg">
    <g filter="url(#filter0_d_35_14)">
        <path d="M55 31.7321C56.8564 30.6603 59.1436 30.6603 61 31.7321L82.7128 44.2679C84.5692 45.3397 85.7128 47.3205 85.7128 49.4641V74.5359C85.7128 76.6795 84.5692 78.6603 82.7128 79.7321L61 92.2679C59.1436 93.3397 56.8564 93.3397 55 92.2679L33.2872 79.7321C31.4308 78.6603 30.2872 76.6795 30.2872 74.5359V49.4641C30.2872 47.3205 31.4308 45.3397 33.2872 44.2679L55 31.7321Z"
              fill="url(#paint0_radial_35_14)"/>
        <path d="M55.25 32.1651C56.9517 31.1826 59.0483 31.1826 60.75 32.1651L82.4628 44.701C84.1645 45.6834 85.2128 47.4991 85.2128 49.4641V74.5359C85.2128 76.5009 84.1645 78.3166 82.4628 79.299L60.75 91.8349C59.0483 92.8174 56.9517 92.8174 55.25 91.8349L33.5372 79.299C31.8355 78.3166 30.7872 76.5009 30.7872 74.5359V49.4641C30.7872 47.4991 31.8355 45.6834 33.5372 44.701L55.25 32.1651Z"
              stroke="url(#paint1_linear_35_14)" style="mix-blend-mode:overlay"/>
    </g>
    <defs>
        <filter id="filter0_d_35_14" x="0.287231" y="0.928223" width="115.426" height="122.144"
                filterUnits="userSpaceOnUse" color-interpolation-filters="sRGB">
            <feFlood flood-opacity="0" result="BackgroundImageFix"/>
            <feColorMatrix in="SourceAlpha" type="matrix" values="0 0 0 0 0 0 0 0 0 0 0 0 0 0 0 0 0 0 127 0"
                           result="hardAlpha"/>
            <feOffset/>
            <feGaussianBlur stdDeviation="15"/>
            <feComposite in2="hardAlpha" operator="out"/>
            <feColorMatrix type="matrix" values="0 0 0 0 0.462745 0 0 0 0 0.239216 0 0 0 0 0.690196 0 0 0 1 0"/>
            <feBlend mode="normal" in2="BackgroundImageFix" result="effect1_dropShadow_35_14"/>
            <feBlend mode="normal" in="SourceGraphic" in2="effect1_dropShadow_35_14" result="shape"/>
        </filter>
        <radialGradient id="paint0_radial_35_14" cx="0" cy="0" r="1" gradientUnits="userSpaceOnUse"
                        gradientTransform="translate(75.0777 72.6667) rotate(-92.637) scale(162.172 72.7296)">
            <stop stop-color="#602EA6"/>
            <stop offset="1" stop-color="#C977D6"/>
        </radialGradient>
        <linearGradient id="paint1_linear_35_14" x1="50.2" y1="74.3914" x2="78.7955" y2="33.8895"
                        gradientUnits="userSpaceOnUse">
            <stop stop-color="white"/>
            <stop offset="1" stop-color="white" stop-opacity="0.5"/>
        </linearGradient>
    </defs>
</svg>
