<svg width="16" height="22" viewBox="0 0 16 22" fill="none" xmlns="http://www.w3.org/2000/svg">
<path d="M6.05762 2.63965C5.35205 2.63965 4.7627 2.05859 4.7627 1.33643C4.7627 0.630859 5.35205 0.0415039 6.05762 0.0415039C6.77979 0.0415039 7.36084 0.630859 7.36084 1.33643C7.36084 2.05859 6.77979 2.63965 6.05762 2.63965ZM14.1509 2.63965C13.4453 2.63965 12.8643 2.05859 12.8643 1.33643C12.8643 0.630859 13.4453 0.0415039 14.1509 0.0415039C14.873 0.0415039 15.4541 0.630859 15.4541 1.33643C15.4541 2.05859 14.873 2.63965 14.1509 2.63965ZM1.82422 6.4165C1.11865 6.4165 0.545898 5.83545 0.545898 5.11328C0.545898 4.39941 1.11865 3.81836 1.82422 3.81836C2.56299 3.81836 3.12744 4.39941 3.12744 5.11328C3.12744 5.83545 2.56299 6.4165 1.82422 6.4165ZM10.3325 6.4165C9.61865 6.4165 9.0376 5.83545 9.0376 5.11328C9.0376 4.39941 9.61865 3.81836 10.3325 3.81836C11.0547 3.81836 11.6357 4.39941 11.6357 5.11328C11.6357 5.83545 11.0547 6.4165 10.3325 6.4165ZM14.1509 6.4165C13.4453 6.4165 12.8643 5.83545 12.8643 5.11328C12.8643 4.39941 13.4453 3.81836 14.1509 3.81836C14.873 3.81836 15.4541 4.39941 15.4541 5.11328C15.4541 5.83545 14.873 6.4165 14.1509 6.4165ZM8.93799 21.1919C6.29004 21.1919 4.05713 19.8057 2.91162 16.4189L1.56689 12.4097C1.52539 12.2769 1.48389 12.1191 1.48389 11.9365C1.48389 11.4634 1.84912 11.0732 2.42187 11.0732C2.79541 11.0732 3.06934 11.2559 3.25195 11.6792L4.47217 14.5679C4.57178 14.792 4.68799 14.875 4.8291 14.875C4.97021 14.875 5.11963 14.7588 5.11963 14.5264L5.11963 5.3042C5.11963 4.68994 5.50146 4.2915 6.05762 4.2915C6.58057 4.2915 6.979 4.68994 6.979 5.3042L6.979 11.6045C6.979 11.9448 7.15332 12.1025 7.36914 12.1025C7.56836 12.1025 7.73437 11.9448 7.73437 11.6045L7.73437 9.72021C7.73437 9.44629 7.90869 9.29688 8.22412 9.29688C8.94629 9.29688 9.50244 9.75342 9.50244 10.7163L9.50244 11.6045C9.50244 11.9448 9.67676 12.1025 9.89258 12.1025C10.0918 12.1025 10.2578 11.9448 10.2578 11.6045L10.2578 10.6416C10.2578 10.3594 10.4072 10.2183 10.7476 10.2183C11.4863 10.2183 12.0425 10.7827 12.0425 11.6377L12.0425 12.1025C12.0425 12.4429 12.2085 12.6006 12.4243 12.6006C12.6235 12.6006 12.7979 12.4429 12.7979 12.1025L12.7979 11.397C12.7979 11.231 12.8892 11.1313 13.0718 11.1313C13.8687 11.1313 14.5659 12.0195 14.5659 13.4805L14.5659 15.0742C14.5659 18.9341 12.5405 21.1919 8.93799 21.1919Z" fill="url(#paint0_linear_101_73)" style="mix-blend-mode:overlay"/>
<defs>
<linearGradient id="paint0_linear_101_73" x1="8" y1="1" x2="8" y2="21" gradientUnits="userSpaceOnUse">
<stop stop-color="white" stop-opacity="0.8"/>
<stop offset="1" stop-color="white" stop-opacity="0.3"/>
</linearGradient>
</defs>
</svg>
